%TF.GenerationSoftware,KiCad,Pcbnew,10.0.0*%
%TF.CreationDate,2026-04-01T18:59:14+02:00*%
%TF.ProjectId,psu,7073752e-6b69-4636-9164-5f7063625858,rev?*%
%TF.SameCoordinates,Original*%
%TF.FileFunction,Paste,Top*%
%TF.FilePolarity,Positive*%
%FSLAX46Y46*%
G04 Gerber Fmt 4.6, Leading zero omitted, Abs format (unit mm)*
G04 Created by KiCad (PCBNEW 10.0.0) date 2026-04-01 18:59:14*
%MOMM*%
%LPD*%
G01*
G04 APERTURE LIST*
G04 Aperture macros list*
%AMRoundRect*
0 Rectangle with rounded corners*
0 $1 Rounding radius*
0 $2 $3 $4 $5 $6 $7 $8 $9 X,Y pos of 4 corners*
0 Add a 4 corners polygon primitive as box body*
4,1,4,$2,$3,$4,$5,$6,$7,$8,$9,$2,$3,0*
0 Add four circle primitives for the rounded corners*
1,1,$1+$1,$2,$3*
1,1,$1+$1,$4,$5*
1,1,$1+$1,$6,$7*
1,1,$1+$1,$8,$9*
0 Add four rect primitives between the rounded corners*
20,1,$1+$1,$2,$3,$4,$5,0*
20,1,$1+$1,$4,$5,$6,$7,0*
20,1,$1+$1,$6,$7,$8,$9,0*
20,1,$1+$1,$8,$9,$2,$3,0*%
G04 Aperture macros list end*
%ADD10RoundRect,0.250000X0.250000X0.300000X-0.250000X0.300000X-0.250000X-0.300000X0.250000X-0.300000X0*%
%ADD11RoundRect,0.090000X-0.139000X-0.090000X0.139000X-0.090000X0.139000X0.090000X-0.139000X0.090000X0*%
%ADD12RoundRect,0.250000X0.300000X-0.250000X0.300000X0.250000X-0.300000X0.250000X-0.300000X-0.250000X0*%
%ADD13RoundRect,0.090000X-0.090000X0.139000X-0.090000X-0.139000X0.090000X-0.139000X0.090000X0.139000X0*%
%ADD14RoundRect,0.079500X-0.100500X0.079500X-0.100500X-0.079500X0.100500X-0.079500X0.100500X0.079500X0*%
%ADD15RoundRect,0.079500X0.079500X0.100500X-0.079500X0.100500X-0.079500X-0.100500X0.079500X-0.100500X0*%
%ADD16RoundRect,0.090000X0.090000X-0.139000X0.090000X0.139000X-0.090000X0.139000X-0.090000X-0.139000X0*%
%ADD17R,0.325000X0.250000*%
%ADD18R,0.250000X0.625000*%
%ADD19R,0.250000X0.950000*%
%ADD20R,0.850000X0.250000*%
%ADD21R,0.250000X0.700000*%
%ADD22R,1.250000X0.740000*%
%ADD23R,1.600000X1.000000*%
G04 APERTURE END LIST*
D10*
%TO.C,C2*%
X144505000Y-84885000D03*
X144505000Y-83615000D03*
%TD*%
%TO.C,C1*%
X143005000Y-84885000D03*
X143005000Y-83615000D03*
%TD*%
D11*
%TO.C,R4*%
X136567500Y-89000000D03*
X137432500Y-89000000D03*
%TD*%
D12*
%TO.C,C5*%
X137865000Y-77755000D03*
X139135000Y-77755000D03*
%TD*%
D13*
%TO.C,R3*%
X134500000Y-81567500D03*
X134500000Y-82432500D03*
%TD*%
%TO.C,R6*%
X142750000Y-88317500D03*
X142750000Y-89182500D03*
%TD*%
%TO.C,R5*%
X140000000Y-89067500D03*
X140000000Y-89932500D03*
%TD*%
%TO.C,R1*%
X134500000Y-83567500D03*
X134500000Y-84432500D03*
%TD*%
D14*
%TO.C,C3*%
X138500000Y-89155000D03*
X138500000Y-89845000D03*
%TD*%
D15*
%TO.C,D1*%
X140595000Y-90750000D03*
X139905000Y-90750000D03*
%TD*%
D16*
%TO.C,R7*%
X142750000Y-87182500D03*
X142750000Y-86317500D03*
%TD*%
%TO.C,R2*%
X141000000Y-89932500D03*
X141000000Y-89067500D03*
%TD*%
D12*
%TO.C,C4*%
X137865000Y-79255000D03*
X139135000Y-79255000D03*
%TD*%
D17*
%TO.C,U1*%
X141038000Y-86700000D03*
D18*
X140750000Y-86837000D03*
D19*
X140500000Y-87000000D03*
D20*
X140775000Y-86050000D03*
X140775000Y-85250000D03*
X140775000Y-84600000D03*
X140775000Y-83800000D03*
X140775000Y-83150000D03*
X140775000Y-82500000D03*
D17*
X141038000Y-81850000D03*
D18*
X140750000Y-81712000D03*
D19*
X140500000Y-81550000D03*
D21*
X140000000Y-81425000D03*
X139500000Y-81425000D03*
X139000000Y-81425000D03*
X138500000Y-81425000D03*
X138000000Y-81425000D03*
D22*
X139000000Y-82350000D03*
D19*
X137500000Y-81550000D03*
D18*
X137250000Y-81712000D03*
D17*
X136962000Y-81849000D03*
D20*
X137225000Y-82500000D03*
D23*
X139000000Y-84875000D03*
D20*
X137225000Y-83150000D03*
D23*
X139000000Y-83675000D03*
D20*
X137225000Y-83800000D03*
X137225000Y-84600000D03*
X137225000Y-85250000D03*
X137225000Y-86050000D03*
D19*
X137500000Y-87000000D03*
D18*
X137250000Y-86837000D03*
D17*
X136963000Y-86700000D03*
D21*
X138000000Y-87125000D03*
X138500000Y-87125000D03*
X139000000Y-87125000D03*
D22*
X139000000Y-86200000D03*
D21*
X139500000Y-87125000D03*
X140000000Y-87125000D03*
%TD*%
M02*
